<svg width="44" height="43" viewBox="0 0 44 43" fill="none" xmlns="http://www.w3.org/2000/svg">
<rect x="1" y="0.5" width="42" height="42" rx="1.5" stroke="black"/>
<path d="M32.8228 19.7499H21.9902V22.9748H29.6805C29.2907 27.4756 25.546 29.4011 22.0021 29.4011C17.4777 29.4011 13.5085 25.8336 13.5085 20.813C13.5085 15.9697 17.2886 12.225 22.0139 12.225C25.6641 12.225 27.8023 14.5521 27.8023 14.5521L30.0467 12.2131C30.0467 12.2131 27.1644 9 21.8957 9C15.1859 9 10 14.6703 10 20.813C10 26.7786 14.8788 32.6261 22.0729 32.6261C28.3929 32.6261 33 28.2907 33 21.888C33 20.5295 32.8228 19.7499 32.8228 19.7499Z" fill="black"/>
</svg>
