<svg width="28" height="28" viewBox="0 0 28 28" fill="none" xmlns="http://www.w3.org/2000/svg">
<path fill-rule="evenodd" clip-rule="evenodd" d="M8.709 1.24366C10.0775 1.18066 10.5138 1.16666 13.9998 1.16666C17.4858 1.16666 17.9222 1.18182 19.2895 1.24366C20.6568 1.30549 21.5902 1.52366 22.4068 1.83982C23.262 2.16299 24.0378 2.66816 24.6795 3.32149C25.3328 3.96199 25.8368 4.73666 26.1588 5.59299C26.4762 6.40966 26.6932 7.34299 26.7562 8.70799C26.8192 10.0788 26.8332 10.5152 26.8332 14C26.8332 17.486 26.818 17.9223 26.7562 19.2908C26.6943 20.6558 26.4762 21.5892 26.1588 22.4058C25.8368 23.2623 25.332 24.0382 24.6795 24.6797C24.0378 25.333 23.262 25.837 22.4068 26.159C21.5902 26.4763 20.6568 26.6933 19.2918 26.7563C17.9222 26.8193 17.4858 26.8333 13.9998 26.8333C10.5138 26.8333 10.0775 26.8182 8.709 26.7563C7.344 26.6945 6.41067 26.4763 5.594 26.159C4.73758 25.8369 3.96163 25.3321 3.32017 24.6797C2.66728 24.0388 2.16204 23.2632 1.83967 22.407C1.5235 21.5903 1.3065 20.657 1.2435 19.292C1.1805 17.9212 1.1665 17.4848 1.1665 14C1.1665 10.514 1.18167 10.0777 1.2435 8.71032C1.30534 7.34299 1.5235 6.40966 1.83967 5.59299C2.16251 4.73675 2.66814 3.96119 3.32134 3.32032C3.96188 2.66757 4.73705 2.16234 5.59284 1.83982C6.4095 1.52366 7.34284 1.30666 8.70784 1.24366H8.709ZM19.1857 3.55366C17.8323 3.49182 17.4263 3.47899 13.9998 3.47899C10.5733 3.47899 10.1673 3.49182 8.814 3.55366C7.56217 3.61082 6.88317 3.81966 6.4305 3.99582C5.832 4.22916 5.40384 4.50566 4.95467 4.95482C4.52889 5.36905 4.20121 5.87332 3.99567 6.43066C3.8195 6.88332 3.61067 7.56232 3.5535 8.81416C3.49167 10.1675 3.47884 10.5735 3.47884 14C3.47884 17.4265 3.49167 17.8325 3.5535 19.1858C3.61067 20.4377 3.8195 21.1167 3.99567 21.5693C4.201 22.1258 4.52884 22.631 4.95467 23.0452C5.36884 23.471 5.874 23.7988 6.4305 24.0042C6.88317 24.1803 7.56217 24.3892 8.814 24.4463C10.1673 24.5082 10.5722 24.521 13.9998 24.521C17.4275 24.521 17.8323 24.5082 19.1857 24.4463C20.4375 24.3892 21.1165 24.1803 21.5692 24.0042C22.1677 23.7708 22.5958 23.4943 23.045 23.0452C23.4708 22.631 23.7987 22.1258 24.004 21.5693C24.1802 21.1167 24.389 20.4377 24.4462 19.1858C24.508 17.8325 24.5208 17.4265 24.5208 14C24.5208 10.5735 24.508 10.1675 24.4462 8.81416C24.389 7.56232 24.1802 6.88332 24.004 6.43066C23.7707 5.83216 23.4942 5.40399 23.045 4.95482C22.6307 4.52907 22.1265 4.2014 21.5692 3.99582C21.1165 3.81966 20.4375 3.61082 19.1857 3.55366ZM12.3607 17.9562C13.2761 18.3372 14.2954 18.3887 15.2446 18.1017C16.1937 17.8147 17.0138 17.2071 17.5647 16.3826C18.1156 15.5582 18.3632 14.568 18.2652 13.5813C18.1672 12.5946 17.7297 11.6725 17.0273 10.9725C16.5796 10.525 16.0382 10.1824 15.4422 9.96933C14.8462 9.75622 14.2103 9.67791 13.5804 9.74004C12.9505 9.80217 12.3422 10.0032 11.7993 10.3286C11.2564 10.6541 10.7924 11.0959 10.4407 11.6221C10.089 12.1484 9.85839 12.7462 9.76544 13.3723C9.67249 13.9984 9.71951 14.6373 9.90313 15.2431C10.0868 15.8489 10.4024 16.4064 10.8273 16.8755C11.2523 17.3446 11.776 17.7137 12.3607 17.9562ZM9.3355 9.33566C9.94803 8.72313 10.6752 8.23724 11.4755 7.90574C12.2758 7.57425 13.1336 7.40363 13.9998 7.40363C14.8661 7.40363 15.7238 7.57424 16.5242 7.90574C17.3245 8.23724 18.0516 8.72313 18.6642 9.33566C19.2767 9.94818 19.7626 10.6754 20.0941 11.4757C20.4256 12.276 20.5962 13.1337 20.5962 14C20.5962 14.8662 20.4256 15.724 20.0941 16.5243C19.7626 17.3246 19.2767 18.0518 18.6642 18.6643C17.4271 19.9014 15.7493 20.5964 13.9998 20.5964C12.2504 20.5964 10.5726 19.9014 9.3355 18.6643C8.09844 17.4273 7.40347 15.7495 7.40347 14C7.40347 12.2505 8.09844 10.5727 9.3355 9.33566ZM22.0592 8.38599C22.211 8.2428 22.3325 8.07062 22.4165 7.87963C22.5006 7.68863 22.5454 7.48272 22.5485 7.27407C22.5515 7.06543 22.5127 6.85829 22.4342 6.66493C22.3558 6.47157 22.2393 6.29592 22.0918 6.14837C21.9442 6.00082 21.7686 5.88437 21.5752 5.80593C21.3819 5.72748 21.1747 5.68863 20.9661 5.69167C20.7574 5.69471 20.5515 5.73959 20.3605 5.82364C20.1695 5.90768 19.9974 6.0292 19.8542 6.18099C19.5757 6.47619 19.4232 6.8683 19.4292 7.27407C19.4351 7.67985 19.5989 8.06735 19.8859 8.35431C20.1728 8.64126 20.5603 8.80509 20.9661 8.811C21.3719 8.81692 21.764 8.66446 22.0592 8.38599Z" fill="black"/>
</svg>
