<svg width="46" height="46" viewBox="0 0 46 46" fill="none" xmlns="http://www.w3.org/2000/svg">
<rect width="46" height="46" fill="#1E1E1E"/>
<g id="Course main (desktop)">
<rect width="1600" height="938" transform="translate(-1354 -50)" fill="white"/>
<g id="header">
<g id="Frame 21">
<g id="iconamoon:profile">
<g id="Group">
<path id="Vector" d="M7.66669 34.5C7.66669 32.4667 8.47442 30.5167 9.9122 29.0789C11.35 27.6411 13.3 26.8334 15.3334 26.8334H30.6667C32.7 26.8334 34.6501 27.6411 36.0878 29.0789C37.5256 30.5167 38.3334 32.4667 38.3334 34.5C38.3334 35.5167 37.9295 36.4917 37.2106 37.2106C36.4917 37.9295 35.5167 38.3334 34.5 38.3334H11.5C10.4834 38.3334 9.50833 37.9295 8.78944 37.2106C8.07055 36.4917 7.66669 35.5167 7.66669 34.5Z" stroke="black" stroke-width="2" stroke-linejoin="round"/>
<path id="Vector_2" d="M23 19.1667C26.1756 19.1667 28.75 16.5923 28.75 13.4167C28.75 10.241 26.1756 7.66669 23 7.66669C19.8244 7.66669 17.25 10.241 17.25 13.4167C17.25 16.5923 19.8244 19.1667 23 19.1667Z" stroke="black" stroke-width="2"/>
</g>
</g>
</g>
</g>
<g id="Frame 48">
<g id="Hexagon">
<g id="Ellipse 2" filter="url(#filter0_f_0_1)">
<circle cx="-298" cy="362" r="148" fill="#A9BDC8"/>
</g>
</g>
</g>
</g>
<defs>
<filter id="filter0_f_0_1" x="-646" y="14" width="696" height="696" filterUnits="userSpaceOnUse" color-interpolation-filters="sRGB">
<feFlood flood-opacity="0" result="BackgroundImageFix"/>
<feBlend mode="normal" in="SourceGraphic" in2="BackgroundImageFix" result="shape"/>
<feGaussianBlur stdDeviation="100" result="effect1_foregroundBlur_0_1"/>
</filter>
</defs>
</svg>
