<svg width="24" height="25" viewBox="0 0 24 25" fill="none" xmlns="http://www.w3.org/2000/svg">
<path fill-rule="evenodd" clip-rule="evenodd" d="M6 6.5H4C3.44772 6.5 3 6.94772 3 7.5V17.5C3 18.0523 3.44772 18.5 4 18.5H6C6.55228 18.5 7 18.0523 7 17.5V7.5C7 6.94772 6.55228 6.5 6 6.5ZM4 5.5C2.89543 5.5 2 6.39543 2 7.5V17.5C2 18.6046 2.89543 19.5 4 19.5H6C7.10457 19.5 8 18.6046 8 17.5V7.5C8 6.39543 7.10457 5.5 6 5.5H4ZM13 6.5H11C10.4477 6.5 10 6.94772 10 7.5V17.5C10 18.0523 10.4477 18.5 11 18.5H13C13.5523 18.5 14 18.0523 14 17.5V7.5C14 6.94772 13.5523 6.5 13 6.5ZM11 5.5C9.89543 5.5 9 6.39543 9 7.5V17.5C9 18.6046 9.89543 19.5 11 19.5H13C14.1046 19.5 15 18.6046 15 17.5V7.5C15 6.39543 14.1046 5.5 13 5.5H11ZM18 6.5H20C20.5523 6.5 21 6.94772 21 7.5V17.5C21 18.0523 20.5523 18.5 20 18.5H18C17.4477 18.5 17 18.0523 17 17.5V7.5C17 6.94772 17.4477 6.5 18 6.5ZM16 7.5C16 6.39543 16.8954 5.5 18 5.5H20C21.1046 5.5 22 6.39543 22 7.5V17.5C22 18.6046 21.1046 19.5 20 19.5H18C16.8954 19.5 16 18.6046 16 17.5V7.5Z" fill="black"/>
</svg>
