<svg width="24" height="25" viewBox="0 0 24 25" fill="none" xmlns="http://www.w3.org/2000/svg">
<path d="M4 18.5C3.44772 18.5 3 18.0523 3 17.5C3 16.9477 3.44772 16.5 4 16.5H8C8.55228 16.5 9 16.9477 9 17.5C9 18.0523 8.55228 18.5 8 18.5H4ZM4 13.5C3.44772 13.5 3 13.0523 3 12.5C3 11.9477 3.44772 11.5 4 11.5H14C14.5523 11.5 15 11.9477 15 12.5C15 13.0523 14.5523 13.5 14 13.5H4ZM4 8.5C3.44772 8.5 3 8.05228 3 7.5C3 6.94772 3.44772 6.5 4 6.5H20C20.5523 6.5 21 6.94772 21 7.5C21 8.05228 20.5523 8.5 20 8.5H4Z" fill="black" fill-opacity="0.29"/>
</svg>
